<?xml version="1.0" encoding="UTF-8"?><svg id="Layer_1" xmlns="http://www.w3.org/2000/svg" viewBox="0 0 481.25 361.25"><defs><style>.cls-1{fill:none;stroke:#4f4ffc;stroke-linecap:round;stroke-linejoin:round;stroke-width:10px;}</style></defs><path class="cls-1" d="M221.06,84.26c2.06,18.23,5.06,36.37,9.39,54.21,4.28,17.59,9.99,34.85,17.3,51.41,3.69,8.36,7.79,16.54,12.3,24.49,4.14,7.3,8.4,15.69,14.14,21.88,2.97,3.21,6.83,5.78,11.16,6.4,3.84.55,7.88-.53,10.94-2.91,5.82-4.53,7.08-13.18,5.98-20.03-2.19-13.66-11.21-26.09-22.31-34.03-12.28-8.78-28.06-12.35-42.86-9.09-1.83.4-3.65.91-5.43,1.51-16.79,5.68-29.9,19.56-37.94,35.36-9.78,19.22-14.12,42.09-14.75,63.52"/></svg>