<?xml version="1.0" encoding="UTF-8"?><svg id="Layer_1" xmlns="http://www.w3.org/2000/svg" viewBox="0 0 481.25 361.25"><defs><style>.cls-1{fill:none;stroke:#4f4ffc;stroke-linecap:round;stroke-linejoin:round;stroke-width:10px;}</style></defs><path class="cls-1" d="M122.39,254.66c53.21-1.56,104.69-32.12,131.54-78.09,7.59-13,13.39-27.48,13.64-42.53.2-12.05-5.9-26.46-17.91-27.4-10.47-.81-18.55,9.24-22.29,19.05-7.69,20.15-5.27,44.04,6.88,61.86,12.15,17.82,33.87,28.88,55.4,27.54,13.32-.83,25.6-7,34.98-16.38,16.73-16.74,23.65-41.66,21.52-64.88-.5-5.4-1.65-11.09-5.41-14.99-4.94-5.13-13.46-5.65-19.8-2.39s-10.62,9.62-12.91,16.37c-9.03,26.64-.5,58.96,19.36,78.67,9.23,9.16,20.4,14.38,31.46,20.78"/></svg>