<?xml version="1.0" encoding="UTF-8"?><svg id="Layer_1" xmlns="http://www.w3.org/2000/svg" viewBox="0 0 481.25 361.25"><defs><style>.cls-1{fill:none;stroke:#4f4ffc;stroke-linecap:round;stroke-linejoin:round;stroke-width:10px;}</style></defs><path class="cls-1" d="M126.4,97.88c-6.84,12.71-5.66,28.96,1.67,41.39s20.22,21.1,34.17,24.79c10.64,2.82,22.09,3.02,31.98,7.85,15.17,7.41,23.79,25.57,21.33,42.27-1.04,7.06-3.8,13.79-4.59,20.88-.79,7.09.94,15.16,6.86,19.15,7.26,4.9,16.95,1.65,25.26-1.09,21.12-6.95,43.4-9.58,65.57-11.31,10.04-.78,20.34-1.36,29.97,1.58,9.63,2.94,18.57,10.15,20.76,19.97"/></svg>