<?xml version="1.0" encoding="UTF-8"?><svg id="Layer_1" xmlns="http://www.w3.org/2000/svg" viewBox="0 0 481.25 361.25"><defs><style>.cls-1{fill:none;stroke:#4f4ffc;stroke-linecap:round;stroke-linejoin:round;stroke-width:10px;}</style></defs><path class="cls-1" d="M191.47,247.84c-28.45-15.53-30.38-62.59,2.39-74.53,12.62-4.6,27.2-2.16,39.36,2.71,16.51,6.62,34.1,19.35,52.45,19.45,12.14.07,25.12-13.07,22.17-26.6-6.21-28.51-48.38-19.94-59.17-44.87-1.65-3.81-2.3-8.07-1.26-12.13,1.32-5.14,5.16-9.58,10.06-11.62,11.45-4.77,21.88,2.45,31.65,7.63,8.51,4.5,17.57,7.92,26.89,10.35,9.19,2.39,19.53,4.71,29.09,4.65,6.52-.04,17.43-1.52,21.77-7.19,3.52-4.59,1.76-13.4-3.87-15.49"/></svg>