<svg width="20" height="20" viewBox="0 0 20 20" fill="none" xmlns="http://www.w3.org/2000/svg">
<g clip-path="url(#clip0_5848_1326)">
<path d="M9.99999 19.01C14.9761 19.01 19.01 14.9761 19.01 9.99999C19.01 5.0239 14.9761 0.98999 9.99999 0.98999C5.0239 0.98999 0.98999 5.0239 0.98999 9.99999C0.98999 14.9761 5.0239 19.01 9.99999 19.01Z" fill="black"/>
<path d="M9.98999 0.98999C8.20996 0.98999 6.4699 1.51783 4.98986 2.50676C3.50982 3.4957 2.35627 4.9013 1.67508 6.54584C0.99389 8.19037 0.81566 9.99997 1.16293 11.7458C1.51019 13.4916 2.36736 15.0953 3.62603 16.354C4.88471 17.6126 6.48835 18.4698 8.23418 18.8171C9.98001 19.1643 11.7896 18.9861 13.4341 18.3049C15.0787 17.6237 16.4843 16.4702 17.4732 14.9901C18.4622 13.5101 18.99 11.77 18.99 9.98999C18.99 7.60304 18.0418 5.31386 16.354 3.62603C14.6661 1.9382 12.3769 0.98999 9.98999 0.98999ZM14.22 7.44999L9.77999 13.61C9.64774 13.7885 9.45473 13.9125 9.23736 13.9586C9.02 14.0046 8.79329 13.9696 8.59999 13.86L6.04999 12.37C5.84313 12.2453 5.69425 12.0436 5.63611 11.8092C5.57797 11.5748 5.61534 11.3269 5.73999 11.12C5.86465 10.9131 6.06637 10.7642 6.30079 10.7061C6.53521 10.648 6.78313 10.6853 6.98999 10.81L8.79999 11.89L12.8 6.39999C12.9484 6.25127 13.1443 6.15918 13.3535 6.13969C13.5627 6.1202 13.7722 6.17453 13.9455 6.29328C14.1189 6.41203 14.2453 6.58769 14.3027 6.78983C14.3601 6.99197 14.345 7.20783 14.26 7.39999L14.22 7.44999Z" fill="#73E063"/>
</g>
<defs>
<clipPath id="clip0_5848_1326">
<rect width="20" height="20" fill="white"/>
</clipPath>
</defs>
</svg>
