<svg width="167" height="58" viewBox="0 0 167 58" fill="none" xmlns="http://www.w3.org/2000/svg">
<rect x="0.780559" y="0.707317" width="165.512" height="56.5854" rx="7.78049" fill="black"/>
<rect x="0.780559" y="0.707317" width="165.512" height="56.5854" rx="7.78049" stroke="#A6A6A6" stroke-width="1.41463"/>
<path d="M32.1918 30.0794C32.209 28.7781 32.563 27.5021 33.221 26.3703C33.879 25.2385 34.8195 24.2875 35.9551 23.6059C35.2337 22.6 34.282 21.7722 33.1756 21.1883C32.0692 20.6043 30.8385 20.2802 29.5814 20.2418C26.8997 19.967 24.2999 21.8085 22.9334 21.8085C21.5404 21.8085 19.4364 20.2691 17.1707 20.3146C15.7052 20.3608 14.277 20.7769 13.0252 21.5222C11.7733 22.2676 10.7406 23.3168 10.0276 24.5677C6.93918 29.7882 9.2429 37.4607 12.2014 41.6806C13.6817 43.747 15.4116 46.0552 17.6752 45.9734C19.8903 45.8836 20.7176 44.5943 23.3914 44.5943C26.0404 44.5943 26.8165 45.9734 29.1261 45.9213C31.503 45.8836 33.0005 43.8458 34.4289 41.7598C35.4924 40.2875 36.3108 38.6602 36.8537 36.9382C35.4728 36.368 34.2944 35.4136 33.4653 34.1939C32.6363 32.9742 32.1934 31.5432 32.1918 30.0794Z" fill="white"/>
<path d="M27.8301 17.4667C29.1261 15.9478 29.7646 13.9955 29.61 12.0244C27.63 12.2274 25.8011 13.1513 24.4876 14.6119C23.8454 15.3255 23.3535 16.1556 23.0401 17.0549C22.7267 17.9541 22.598 18.9048 22.6611 19.8527C23.6515 19.8627 24.6312 19.6531 25.5266 19.2398C26.4219 18.8265 27.2095 18.2203 27.8301 17.4667Z" fill="white"/>
<path d="M49.2899 14.5143H52.2179C54.7481 14.5143 55.979 16.0187 55.979 18.7478C55.979 21.4769 54.7357 23 52.2179 23H49.2899V14.5143ZM50.7011 15.7016V21.8126H52.0625C53.741 21.8126 54.5305 20.7993 54.5305 18.7665C54.5305 16.7212 53.7348 15.7016 52.0625 15.7016H50.7011ZM60.4426 16.3171C62.1584 16.3171 63.3582 17.4299 63.3582 19.2762V20.1279C63.3582 22.0364 62.1584 23.1119 60.4426 23.1119C58.7019 23.1119 57.5145 22.0489 57.5145 20.1341V19.2824C57.5145 17.4858 58.7206 16.3171 60.4426 16.3171ZM60.4488 17.4299C59.4666 17.4299 58.9071 18.2505 58.9071 19.3508V20.0844C58.9071 21.1847 59.4293 21.9991 60.4488 21.9991C61.4559 21.9991 61.9719 21.191 61.9719 20.0844V19.3508C61.9719 18.2505 61.431 17.4299 60.4488 17.4299ZM73.4913 16.429L71.7631 23H70.3581L68.9843 18.151H68.947L67.5979 23H66.1868L64.3839 16.429H65.8697L66.9265 21.4396H66.9887L68.3129 16.429H69.6121L70.9736 21.4396H71.0358L72.1112 16.429H73.4913ZM74.859 23V16.429H76.2142V17.6102H76.2826C76.4505 17.0942 76.9291 16.3295 78.2595 16.3295C79.5836 16.3295 80.4726 17.0631 80.4726 18.5613V23H79.0925V18.9654C79.0925 17.9645 78.5703 17.5045 77.7933 17.5045C76.7737 17.5045 76.2391 18.2878 76.2391 19.3508V23H74.859ZM82.5614 23V14.0667H83.9415V23H82.5614ZM88.6786 16.3171C90.3944 16.3171 91.5942 17.4299 91.5942 19.2762V20.1279C91.5942 22.0364 90.3944 23.1119 88.6786 23.1119C86.938 23.1119 85.7506 22.0489 85.7506 20.1341V19.2824C85.7506 17.4858 86.9566 16.3171 88.6786 16.3171ZM88.6848 17.4299C87.7026 17.4299 87.1431 18.2505 87.1431 19.3508V20.0844C87.1431 21.1847 87.6653 21.9991 88.6848 21.9991C89.6919 21.9991 90.2079 21.191 90.2079 20.0844V19.3508C90.2079 18.2505 89.6671 17.4299 88.6848 17.4299ZM95.1688 23.0995C93.8944 23.0995 93.0178 22.3162 93.0178 21.0915C93.0178 19.929 93.826 19.1457 95.3429 19.1457H97.0027V18.5302C97.0027 17.778 96.524 17.4237 95.7656 17.4237C95.0196 17.4237 94.6839 17.7345 94.5782 18.1697H93.2665C93.3473 17.0693 94.1741 16.3295 95.8091 16.3295C97.2141 16.3295 98.3766 16.9139 98.3766 18.5489V23H97.0649V22.1483H97.0027C96.7105 22.6519 96.1386 23.0995 95.1688 23.0995ZM95.5978 22.0302C96.381 22.0302 97.0027 21.4956 97.0027 20.7807V20.072H95.5605C94.7585 20.072 94.4042 20.476 94.4042 21.0231C94.4042 21.7069 94.9761 22.0302 95.5978 22.0302ZM102.629 16.342C103.555 16.342 104.264 16.7523 104.519 17.4174H104.587V14.0667H105.967V23H104.624V21.9494H104.556C104.357 22.6146 103.567 23.087 102.61 23.087C101.099 23.087 100.117 22.0116 100.117 20.2771V19.1519C100.117 17.4174 101.118 16.342 102.629 16.342ZM103.014 17.4734C102.094 17.4734 101.522 18.1572 101.522 19.3508V20.072C101.522 21.2718 102.1 21.9556 103.045 21.9556C103.978 21.9556 104.587 21.278 104.587 20.159V19.1643C104.587 18.151 103.922 17.4734 103.014 17.4734ZM113.545 16.3171C115.261 16.3171 116.461 17.4299 116.461 19.2762V20.1279C116.461 22.0364 115.261 23.1119 113.545 23.1119C111.805 23.1119 110.617 22.0489 110.617 20.1341V19.2824C110.617 17.4858 111.823 16.3171 113.545 16.3171ZM113.551 17.4299C112.569 17.4299 112.01 18.2505 112.01 19.3508V20.0844C112.01 21.1847 112.532 21.9991 113.551 21.9991C114.559 21.9991 115.075 21.191 115.075 20.0844V19.3508C115.075 18.2505 114.534 17.4299 113.551 17.4299ZM118.239 23V16.429H119.594V17.6102H119.662C119.83 17.0942 120.309 16.3295 121.639 16.3295C122.963 16.3295 123.852 17.0631 123.852 18.5613V23H122.472V18.9654C122.472 17.9645 121.95 17.5045 121.173 17.5045C120.154 17.5045 119.619 18.2878 119.619 19.3508V23H118.239ZM129.193 16.4725V14.8313H130.542V16.4725H132.015V17.5542H130.542V21.0418C130.542 21.7567 130.809 21.9556 131.549 21.9556C131.735 21.9556 131.984 21.9432 132.09 21.9307V22.9876C131.978 23.0062 131.518 23.0435 131.207 23.0435C129.609 23.0435 129.174 22.4716 129.174 21.1537V17.5542H128.173V16.4725H129.193ZM133.756 23V14.0667H135.129V17.6102H135.198C135.341 17.1439 135.875 16.3295 137.193 16.3295C138.474 16.3295 139.388 17.0693 139.388 18.5675V23H138.014V18.9716C138.014 17.9707 137.461 17.5045 136.677 17.5045C135.689 17.5045 135.129 18.2816 135.129 19.3508V23H133.756ZM144.019 23.1119C142.229 23.1119 141.116 22.0116 141.116 20.159V19.27C141.116 17.405 142.335 16.3171 143.938 16.3171C145.586 16.3171 146.748 17.461 146.748 19.27V20.0409H142.484V20.3641C142.484 21.3091 143.043 22.0053 144.013 22.0053C144.734 22.0053 145.232 21.6634 145.325 21.2531H146.674C146.593 22.0116 145.791 23.1119 144.019 23.1119ZM142.484 19.1395H145.399V19.0524C145.399 18.064 144.821 17.405 143.945 17.405C143.068 17.405 142.484 18.064 142.484 19.0524V19.1395Z" fill="white"/>
<path d="M51.2917 43H48.4196L54.2632 26.0285H57.4213L63.2525 43H60.2685L58.7641 38.3002H52.8085L51.2917 43ZM55.8547 28.9628H55.7428L53.4426 36.1368H58.13L55.8547 28.9628ZM71.179 43.1865C69.4757 43.1865 68.1826 42.3783 67.4863 41.1723H67.3869V47.3641H64.6267V29.858H67.3123V31.7852H67.4117C68.1329 30.5294 69.4757 29.6839 71.2412 29.6839C74.1879 29.6839 76.2891 31.9095 76.2891 35.8384V37.0071C76.2891 40.9112 74.2128 43.1865 71.179 43.1865ZM70.5449 40.9112C72.298 40.9112 73.4916 39.5062 73.4916 36.8579V35.9379C73.4916 33.3891 72.3726 31.9344 70.4952 31.9344C68.568 31.9344 67.362 33.501 67.362 35.9254V36.8579C67.362 39.3446 68.5805 40.9112 70.5449 40.9112ZM85.2103 43.1865C83.507 43.1865 82.2139 42.3783 81.5176 41.1723H81.4182V47.3641H78.658V29.858H81.3436V31.7852H81.443C82.1642 30.5294 83.507 29.6839 85.2725 29.6839C88.2192 29.6839 90.3204 31.9095 90.3204 35.8384V37.0071C90.3204 40.9112 88.2441 43.1865 85.2103 43.1865ZM84.5762 40.9112C86.3293 40.9112 87.5229 39.5062 87.5229 36.8579V35.9379C87.5229 33.3891 86.4039 31.9344 84.5265 31.9344C82.5993 31.9344 81.3933 33.501 81.3933 35.9254V36.8579C81.3933 39.3446 82.6118 40.9112 84.5762 40.9112ZM96.0403 38.2878H98.8005C98.9249 39.7549 100.218 41.0107 102.618 41.0107C104.818 41.0107 106.124 39.9787 106.124 38.3748C106.124 37.0817 105.253 36.3855 103.438 35.9503L100.653 35.254C98.4648 34.7443 96.5004 33.4388 96.5004 30.6786C96.5004 27.4335 99.3352 25.6555 102.63 25.6555C105.925 25.6555 108.673 27.4335 108.735 30.604H106.024C105.9 29.1617 104.793 27.9681 102.593 27.9681C100.653 27.9681 99.3352 28.8882 99.3352 30.4672C99.3352 31.5738 100.106 32.3695 101.685 32.7301L104.458 33.4139C107.007 34.0356 108.946 35.2416 108.946 38.1261C108.946 41.4583 106.248 43.3357 102.406 43.3357C97.6815 43.3357 96.1025 40.5755 96.0403 38.2878ZM112.31 29.858V26.6626H115.02V29.858H117.581V32.0711H115.02V39.0835C115.02 40.5133 115.555 40.9112 117.034 40.9112C117.271 40.9112 117.494 40.9112 117.656 40.8863V43C117.432 43.0373 116.91 43.087 116.35 43.087C113.155 43.087 112.272 41.9432 112.272 39.3073V32.0711H110.457V29.858H112.31ZM125.035 29.6342C128.815 29.6342 130.867 32.2949 130.867 35.8757V36.9325C130.867 40.6377 128.828 43.2238 125.035 43.2238C121.243 43.2238 119.179 40.6377 119.179 36.9325V35.8757C119.179 32.3074 121.256 29.6342 125.035 29.6342ZM125.035 31.8473C122.984 31.8473 121.964 33.5258 121.964 35.913V36.9201C121.964 39.27 122.971 40.9982 125.035 40.9982C127.099 40.9982 128.094 39.2824 128.094 36.9201V35.913C128.094 33.5134 127.087 31.8473 125.035 31.8473ZM133.198 43V29.858H135.958V31.5862H136.058C136.394 30.7656 137.376 29.6715 139.203 29.6715C139.564 29.6715 139.875 29.6964 140.136 29.7461V32.183C139.9 32.1209 139.415 32.0836 138.955 32.0836C136.742 32.0836 135.996 33.4512 135.996 35.2167V43H133.198ZM146.832 43.2238C143.313 43.2238 141.075 40.8988 141.075 37.0071V35.6768C141.075 32.009 143.263 29.6342 146.72 29.6342C150.226 29.6342 152.34 32.096 152.34 35.8011V37.0569H143.798V37.3677C143.798 39.5808 144.991 41.048 146.869 41.048C148.274 41.048 149.231 40.3517 149.567 39.2203H152.19C151.793 41.3464 150.077 43.2238 146.832 43.2238ZM143.798 35.1297H149.642V35.1048C149.642 33.2399 148.485 31.7727 146.732 31.7727C144.954 31.7727 143.798 33.2399 143.798 35.1048V35.1297Z" fill="white"/>
</svg>
