<svg width="167" height="57" viewBox="0 0 167 57" fill="none" xmlns="http://www.w3.org/2000/svg">
<rect x="0.780559" y="0.707317" width="165.512" height="55.1951" rx="7.78049" fill="black"/>
<rect x="0.780559" y="0.707317" width="165.512" height="55.1951" rx="7.78049" stroke="#A6A6A6" stroke-width="1.41463"/>
<path d="M25.2606 27.5431L11.5171 42.4594C11.5184 42.462 11.5184 42.466 11.5197 42.4686C11.9418 44.0883 13.3875 45.2803 15.1043 45.2803C15.791 45.2803 16.4352 45.0902 16.9876 44.7575L17.0315 44.7311L32.5008 35.6032L25.2606 27.5431Z" fill="#EA4335"/>
<path d="M39.1637 25.0031L39.1508 24.9939L32.472 21.0351L24.9478 27.8821L32.4991 35.6016L39.1417 31.6824C40.3061 31.0382 41.0973 29.7829 41.0973 28.3362C41.0973 26.8973 40.3177 25.6486 39.1637 25.0031Z" fill="#FBBC04"/>
<path d="M11.5166 14.149C11.434 14.4605 11.3901 14.7878 11.3901 15.1258V41.484C11.3901 41.8219 11.434 42.1493 11.5179 42.4595L25.7326 27.9247L11.5166 14.149Z" fill="#4285F4"/>
<path d="M25.3621 28.3047L32.4745 21.0327L17.0233 11.8717C16.4618 11.5272 15.806 11.3292 15.1051 11.3292C13.3883 11.3292 11.94 12.5238 11.5179 14.1448C11.5179 14.1461 11.5166 14.1474 11.5166 14.1488L25.3621 28.3047Z" fill="#34A853"/>
<path d="M61.7659 16.4191C61.7659 17.8337 61.3462 18.9607 60.5068 19.8001C59.5637 20.7997 58.3236 21.2996 56.7863 21.2996C55.3151 21.2996 54.0702 20.7903 53.0517 19.7718C52.0332 18.7532 51.5239 17.4989 51.5239 16.0089C51.5239 14.5188 52.0332 13.2645 53.0517 12.2459C54.0702 11.2274 55.3151 10.7181 56.7863 10.7181C57.5314 10.7181 58.234 10.8502 58.8941 11.1142C59.5543 11.3783 60.0966 11.7508 60.521 12.2318L59.5873 13.1654C59.2761 12.7882 58.8706 12.4958 58.3707 12.2884C57.8803 12.0715 57.3522 11.963 56.7863 11.963C55.6829 11.963 54.7493 12.3449 53.9854 13.1089C53.2309 13.8822 52.8537 14.8489 52.8537 16.0089C52.8537 17.1689 53.2309 18.1355 53.9854 18.9089C54.7493 19.6728 55.6829 20.0547 56.7863 20.0547C57.7954 20.0547 58.6348 19.7718 59.3044 19.2059C59.974 18.6401 60.3607 17.862 60.4644 16.8718H56.7863V15.6552H61.6951C61.7423 15.9193 61.7659 16.1739 61.7659 16.4191ZM69.2603 10.9445V12.1893H64.6486V15.4006H68.8076V16.6171H64.6486V19.8284H69.2603V21.0732H63.3471V10.9445H69.2603ZM74.4661 12.1893V21.0732H73.1646V12.1893H70.3353V10.9445H77.2953V12.1893H74.4661ZM83.0637 21.0732H81.7623V10.9445H83.0637V21.0732ZM88.5571 12.1893V21.0732H87.2557V12.1893H84.4264V10.9445H91.3864V12.1893H88.5571ZM105.494 16.0089C105.494 17.5084 104.994 18.7627 103.994 19.7718C102.985 20.7903 101.75 21.2996 100.288 21.2996C98.8166 21.2996 97.5811 20.7903 96.5814 19.7718C95.5818 18.7627 95.0819 17.5084 95.0819 16.0089C95.0819 14.5093 95.5818 13.255 96.5814 12.2459C97.5811 11.2274 98.8166 10.7181 100.288 10.7181C101.759 10.7181 102.994 11.2321 103.994 12.2601C104.994 13.2692 105.494 14.5188 105.494 16.0089ZM96.4117 16.0089C96.4117 17.1783 96.7795 18.1449 97.5151 18.9089C98.2601 19.6728 99.1844 20.0547 100.288 20.0547C101.391 20.0547 102.311 19.6728 103.046 18.9089C103.791 18.1544 104.164 17.1877 104.164 16.0089C104.164 14.83 103.791 13.8633 103.046 13.1089C102.311 12.3449 101.391 11.963 100.288 11.963C99.1844 11.963 98.2601 12.3449 97.5151 13.1089C96.7795 13.8728 96.4117 14.8394 96.4117 16.0089ZM108.331 21.0732H107.03V10.9445H108.614L113.537 18.824H113.593L113.537 16.8718V10.9445H114.838V21.0732H113.48L108.331 12.8118H108.274L108.331 14.764V21.0732Z" fill="white"/>
<path d="M132.368 44.4576H134.672V28.8803H132.368V44.4576ZM153.121 34.4914L150.48 41.2452H150.401L147.66 34.4914H145.178L149.288 43.9305L146.946 49.1815H149.348L155.683 34.4914H153.121ZM140.054 42.6882C139.299 42.6882 138.247 42.3081 138.247 41.3648C138.247 40.1636 139.557 39.7026 140.689 39.7026C141.702 39.7026 142.179 39.9231 142.794 40.2234C142.615 41.6664 141.384 42.6882 140.054 42.6882ZM140.332 34.1513C138.664 34.1513 136.935 34.8927 136.221 36.5363L138.266 37.3973C138.703 36.5363 139.517 36.2546 140.372 36.2546C141.563 36.2546 142.775 36.9761 142.794 38.2596V38.4191C142.377 38.1786 141.484 37.8185 140.391 37.8185C138.187 37.8185 135.942 39.0409 135.942 41.3249C135.942 43.4096 137.75 44.7529 139.775 44.7529C141.325 44.7529 142.179 44.0514 142.715 43.229H142.794V44.4314H145.018V38.459C145.018 35.6939 142.973 34.1513 140.332 34.1513ZM126.092 36.388H122.815V31.0485H126.092C127.815 31.0485 128.793 32.4877 128.793 33.7176C128.793 34.9251 127.815 36.388 126.092 36.388ZM126.033 28.8803H120.512V44.4576H122.815V38.5562H126.033C128.587 38.5562 131.097 36.6895 131.097 33.7176C131.097 30.7457 128.587 28.8803 126.033 28.8803ZM95.9269 42.6907C94.3352 42.6907 93.0028 41.3461 93.0028 39.4994C93.0028 37.6328 94.3352 36.2671 95.9269 36.2671C97.4988 36.2671 98.7311 37.6328 98.7311 39.4994C98.7311 41.3461 97.4988 42.6907 95.9269 42.6907ZM98.5731 35.3637H98.4928C97.9754 34.7419 96.9814 34.1799 95.7281 34.1799C93.1016 34.1799 90.695 36.5076 90.695 39.4994C90.695 42.4701 93.1016 44.7791 95.7281 44.7791C96.9814 44.7791 97.9754 44.2171 98.4928 43.5741H98.5731V44.338C98.5731 46.3653 97.4988 47.4494 95.7676 47.4494C94.3549 47.4494 93.4795 46.4252 93.1214 45.5616L91.1123 46.4052C91.689 47.8108 93.2214 49.5366 95.7676 49.5366C98.4731 49.5366 100.761 47.9304 100.761 44.0165V34.5002H98.5731V35.3637ZM102.353 44.4576H104.661V28.8791H102.353V44.4576ZM108.061 39.3188C108.002 37.2714 109.633 36.2272 110.806 36.2272C111.723 36.2272 112.498 36.6883 112.756 37.3512L108.061 39.3188ZM115.223 37.5518C114.786 36.368 113.453 34.1799 110.727 34.1799C108.022 34.1799 105.775 36.3269 105.775 39.4795C105.775 42.4502 108.002 44.7791 110.985 44.7791C113.393 44.7791 114.786 43.2938 115.363 42.4302L113.572 41.2253C112.976 42.1087 112.16 42.6907 110.985 42.6907C109.812 42.6907 108.976 42.1486 108.439 41.0857L115.462 38.1537L115.223 37.5518ZM59.2762 35.8061V38.054H64.6069C64.4477 39.3188 64.0303 40.2421 63.3944 40.8838C62.6177 41.6676 61.4038 42.5312 59.2762 42.5312C55.9929 42.5312 53.4269 39.8608 53.4269 36.5487C53.4269 33.2354 55.9929 30.5663 59.2762 30.5663C61.047 30.5663 62.3398 31.2691 63.2943 32.1725L64.8663 30.5862C63.5327 29.3015 61.7632 28.3171 59.2762 28.3171C54.7803 28.3171 51.0005 32.0117 51.0005 36.5487C51.0005 41.0857 54.7803 44.7791 59.2762 44.7791C61.7027 44.7791 63.5327 43.9754 64.965 42.4701C66.4382 40.9848 66.8951 38.8976 66.8951 37.2104C66.8951 36.6883 66.8556 36.2073 66.7753 35.8061H59.2762ZM72.9568 42.6907C71.3651 42.6907 69.992 41.3661 69.992 39.4795C69.992 37.5718 71.3651 36.2671 72.9568 36.2671C74.5472 36.2671 75.9204 37.5718 75.9204 39.4795C75.9204 41.3661 74.5472 42.6907 72.9568 42.6907ZM72.9568 34.1799C70.0513 34.1799 67.6841 36.4079 67.6841 39.4795C67.6841 42.5312 70.0513 44.7791 72.9568 44.7791C75.8611 44.7791 78.2282 42.5312 78.2282 39.4795C78.2282 36.4079 75.8611 34.1799 72.9568 34.1799ZM84.4567 42.6907C82.865 42.6907 81.4919 41.3661 81.4919 39.4795C81.4919 37.5718 82.865 36.2671 84.4567 36.2671C86.0483 36.2671 87.4202 37.5718 87.4202 39.4795C87.4202 41.3661 86.0483 42.6907 84.4567 42.6907ZM84.4567 34.1799C81.5524 34.1799 79.1852 36.4079 79.1852 39.4795C79.1852 42.5312 81.5524 44.7791 84.4567 44.7791C87.3609 44.7791 89.7281 42.5312 89.7281 39.4795C89.7281 36.4079 87.3609 34.1799 84.4567 34.1799Z" fill="white"/>
</svg>
